<?xml version="1.0" encoding="UTF-8" standalone="no"?>
<!-- Created with Inkscape (http://www.inkscape.org/) -->

<svg
   xmlns:dc="http://purl.org/dc/elements/1.1/"
   xmlns:cc="http://creativecommons.org/ns#"
   xmlns:rdf="http://www.w3.org/1999/02/22-rdf-syntax-ns#"
   xmlns:svg="http://www.w3.org/2000/svg"
   xmlns="http://www.w3.org/2000/svg"
   xmlns:sodipodi="http://sodipodi.sourceforge.net/DTD/sodipodi-0.dtd"
   xmlns:inkscape="http://www.inkscape.org/namespaces/inkscape"
   width="9.7227707mm"
   height="7.5240917mm"
   viewBox="0 0 9.7227707 7.5240917"
   version="1.1"
   id="svg8"
   inkscape:version="0.92.2 (5c3e80d, 2017-08-06)"
   sodipodi:docname="app_icon_inkscape.svg">
  <defs
     id="defs2" />
  <sodipodi:namedview
     id="base"
     pagecolor="#ffffff"
     bordercolor="#666666"
     borderopacity="1.0"
     inkscape:pageopacity="0.0"
     inkscape:pageshadow="2"
     inkscape:zoom="22.4"
     inkscape:cx="26.649538"
     inkscape:cy="17.060637"
     inkscape:document-units="mm"
     inkscape:current-layer="layer1"
     showgrid="false"
     inkscape:snap-bbox="true"
     inkscape:bbox-paths="false"
     inkscape:bbox-nodes="false"
     fit-margin-top="0"
     fit-margin-left="0"
     fit-margin-right="0"
     fit-margin-bottom="0"
     inkscape:window-width="1920"
     inkscape:window-height="1017"
     inkscape:window-x="-8"
     inkscape:window-y="-8"
     inkscape:window-maximized="1"
     guidetolerance="10000"
     objecttolerance="10000"
     inkscape:snap-bbox-midpoints="false"
     inkscape:snap-page="true" />
  <metadata
     id="metadata5">
    <rdf:RDF>
      <cc:Work
         rdf:about="">
        <dc:format>image/svg+xml</dc:format>
        <dc:type
           rdf:resource="http://purl.org/dc/dcmitype/StillImage" />
        <dc:title />
      </cc:Work>
    </rdf:RDF>
  </metadata>
  <g
     inkscape:groupmode="layer"
     id="layer3"
     inkscape:label="Ebene 3"
     style="opacity:0.363">
    <rect
       style="fill:#000000;fill-opacity:1;stroke-width:0.43873912"
       id="rect851"
       width="9.7227716"
       height="7.5111489"
       x="4.4408921e-016"
       y="5.5511151e-017" />
  </g>
  <g
     inkscape:groupmode="layer"
     id="layer2"
     inkscape:label="Ebene 2"
     style="display:inline">
    <rect
       id="rect38"
       width="9.7227707"
       height="0.67771113"
       x="0"
       y="-7.3869586e-008"
       style="fill:#57bf40;fill-opacity:1;stroke-width:0.26333919" />
    <rect
       id="rect38-7"
       width="9.7227707"
       height="0.67771113"
       x="3.0908203e-007"
       y="6.8463807"
       style="fill:#57bf40;fill-opacity:1;stroke-width:0.26333919" />
  </g>
  <g
     inkscape:label="Ebene 1"
     inkscape:groupmode="layer"
     id="layer1"
     transform="translate(-50.766188,-82.344953)"
     style="display:inline">
    <g
       aria-label="D"
       style="font-style:normal;font-variant:normal;font-weight:normal;font-stretch:normal;font-size:10.58333302px;line-height:1.25;font-family:Roboto;-inkscape-font-specification:Roboto;letter-spacing:0px;word-spacing:0px;fill:#000000;fill-opacity:1;stroke:none;stroke-width:0.26458332"
       id="text12">
      <path
         d="m 50.766188,89.869041 v -7.524088 h 2.123902 q 0.981852,0 1.736328,0.434082 0.754476,0.434082 1.162719,1.235067 0.413412,0.800985 0.418579,1.839681 v 0.480591 q 0,1.064534 -0.413411,1.865519 -0.408244,0.800984 -1.173055,1.229899 -0.759644,0.428914 -1.772502,0.439249 z m 0.992188,-6.7076 v 5.89628 h 1.043864 q 1.147216,0 1.782837,-0.713134 0.640787,-0.713135 0.640787,-2.030884 v -0.43925 q 0,-1.281575 -0.604614,-1.989542 -0.599447,-0.713135 -1.705322,-0.72347 z"
         style="font-style:normal;font-variant:normal;font-weight:normal;font-stretch:normal;font-family:Roboto;-inkscape-font-specification:Roboto;stroke-width:0.26458332"
         id="path32"
         inkscape:connector-curvature="0" />
    </g>
    <g
       aria-label="riv"
       style="font-style:normal;font-weight:normal;font-size:10.58333302px;line-height:1.25;font-family:sans-serif;letter-spacing:0px;word-spacing:0px;fill:#000000;fill-opacity:1;stroke:none;stroke-width:0.26458332"
       id="text16">
      <path
         d="m 57.850396,83.309582 q -0.07235,-0.01206 -0.156751,-0.01206 -0.313504,0 -0.42547,0.266995 v 1.322917 h -0.318671 v -1.863797 h 0.310059 l 0.0052,0.215319 q 0.156752,-0.24977 0.444418,-0.24977 0.09302,0 0.141248,0.02412 z"
         style="font-style:normal;font-variant:normal;font-weight:normal;font-stretch:normal;font-size:3.52777767px;font-family:Roboto;-inkscape-font-specification:Roboto;stroke-width:0.26458332"
         id="path25"
         inkscape:connector-curvature="0" />
      <path
         d="m 58.487739,84.887436 h -0.318671 v -1.863797 h 0.318671 z M 58.14323,82.529268 q 0,-0.07752 0.04651,-0.130914 0.04823,-0.0534 0.141249,-0.0534 0.09302,0 0.141249,0.0534 0.04823,0.0534 0.04823,0.130914 0,0.07751 -0.04823,0.129191 -0.04823,0.05168 -0.141249,0.05168 -0.09302,0 -0.141249,-0.05168 -0.04651,-0.05168 -0.04651,-0.129191 z"
         style="font-style:normal;font-variant:normal;font-weight:normal;font-stretch:normal;font-size:3.52777767px;font-family:Roboto;-inkscape-font-specification:Roboto;stroke-width:0.26458332"
         id="path27"
         inkscape:connector-curvature="0" />
      <path
         d="m 59.61084,84.455076 0.461643,-1.431437 h 0.325562 l -0.668349,1.863797 h -0.242879 l -0.675239,-1.863797 h 0.325562 z"
         style="font-style:normal;font-variant:normal;font-weight:normal;font-stretch:normal;font-size:3.52777767px;font-family:Roboto;-inkscape-font-specification:Roboto;stroke-width:0.26458332"
         id="path29"
         inkscape:connector-curvature="0" />
    </g>
    <g
       aria-label="e"
       style="font-style:normal;font-weight:normal;font-size:16.7412796px;line-height:1.25;font-family:sans-serif;letter-spacing:0px;word-spacing:0px;fill:#000000;fill-opacity:1;stroke:none;stroke-width:0.41853198"
       id="text20">
      <path
         d="m 58.76415,89.869045 q -0.89919,0 -1.463227,-0.588561 -0.564038,-0.592648 -0.564038,-1.581757 v -0.138965 q 0,-0.658044 0.249321,-1.173034 0.253408,-0.519078 0.703003,-0.809271 0.453682,-0.29428 0.980935,-0.29428 0.862404,0 1.34061,0.568124 0.478205,0.568125 0.478205,1.626716 v 0.314717 h -2.995937 q 0.01635,0.653956 0.380112,1.058591 0.367851,0.400548 0.931888,0.400548 0.400548,0 0.67848,-0.163489 0.277931,-0.163489 0.48638,-0.433246 l 0.461856,0.359676 q -0.555863,0.854231 -1.667588,0.854231 z m -0.09401,-3.96461 q -0.45777,0 -0.768399,0.335153 -0.310629,0.331065 -0.384199,0.931887 h 2.215276 v -0.05722 q -0.0327,-0.576299 -0.310629,-0.891015 -0.277931,-0.318804 -0.752049,-0.318804 z"
         style="font-style:normal;font-variant:normal;font-weight:normal;font-stretch:normal;font-size:8.3706398px;font-family:Roboto;-inkscape-font-specification:Roboto;stroke-width:0.41853198"
         id="path22"
         inkscape:connector-curvature="0" />
    </g>
  </g>
</svg>
