<?xml version="1.0" encoding="UTF-8" standalone="no"?>
<svg
   xmlns:dc="http://purl.org/dc/elements/1.1/"
   xmlns:cc="http://creativecommons.org/ns#"
   xmlns:rdf="http://www.w3.org/1999/02/22-rdf-syntax-ns#"
   xmlns:svg="http://www.w3.org/2000/svg"
   xmlns="http://www.w3.org/2000/svg"
   xmlns:sodipodi="http://sodipodi.sourceforge.net/DTD/sodipodi-0.dtd"
   xmlns:inkscape="http://www.inkscape.org/namespaces/inkscape"
   viewBox="0 0 16 16"
   version="1.1"
   id="svg6"
   sodipodi:docname="emblem-synchronizing-symbolic.svg"
   inkscape:version="0.92.2 5c3e80d, 2017-08-06">
  <metadata
     id="metadata10">
    <rdf:RDF>
      <cc:Work
         rdf:about="">
        <dc:format>image/svg+xml</dc:format>
        <dc:type
           rdf:resource="http://purl.org/dc/dcmitype/StillImage" />
      </cc:Work>
    </rdf:RDF>
  </metadata>
  <sodipodi:namedview
     pagecolor="#ffffff"
     bordercolor="#666666"
     borderopacity="1"
     objecttolerance="10"
     gridtolerance="10"
     guidetolerance="10"
     inkscape:pageopacity="0"
     inkscape:pageshadow="2"
     inkscape:window-width="1366"
     inkscape:window-height="715"
     id="namedview8"
     showgrid="false"
     inkscape:zoom="20.85965"
     inkscape:cx="8.3375718"
     inkscape:cy="8.5758579"
     inkscape:window-x="1920"
     inkscape:window-y="26"
     inkscape:window-maximized="1"
     inkscape:current-layer="svg6" />
  <defs
     id="defs3051">
    <style
       type="text/css"
       id="current-color-scheme">
      .ColorScheme-Text {
        color:#4d4d4d;
      }
      </style>
  </defs>
  <path
     style="color:#4d4d4d;fill:currentColor;fill-opacity:1;stroke:none;stroke-width:1.27118647"
     d="M 0.36465625,0.43245286 V 1.7036393 5.5171986 6.7883851 14.415504 15.68669 H 9.2629614 V 14.415504 H 1.6358427 V 6.7883851 H 14.347709 V 9.330758 h 1.271185 V 5.5171986 4.2460121 2.9748257 H 9.2728925 l -2.5423729,-2.54237284 -0.00993,0.009932 v -0.009932 H 1.6358458 Z M 1.6358427,1.7036393 H 6.2016862 L 7.4753554,2.9748257 H 6.7205885 v 0.00993 l -0.00993,-0.00993 -2.5423729,2.5423729 H 1.6358427 Z M 12.440928,9.330758 a 3.1779658,3.1779665 0 0 0 -3.1779666,3.177967 3.1779658,3.1779665 0 0 0 0.5288334,1.750363 L 10.72284,13.328043 a 1.9067797,1.9067797 0 0 1 -0.188692,-0.819318 1.9067797,1.9067797 0 0 1 1.90678,-1.90678 1.9067797,1.9067797 0 0 1 0.81932,0.188692 L 14.191293,9.8595917 A 3.1779658,3.1779665 0 0 0 12.440928,9.330758 Z m 2.649133,1.427603 -0.931045,0.931045 a 1.9067797,1.9067797 0 0 1 0.188693,0.819319 1.9067797,1.9067797 0 0 1 -1.906781,1.906779 1.9067797,1.9067797 0 0 1 -0.819319,-0.188693 l -0.931045,0.931045 a 3.1779658,3.1779665 0 0 0 1.750364,0.528834 3.1779658,3.1779665 0 0 0 3.177966,-3.177965 3.1779658,3.1779665 0 0 0 -0.528833,-1.750364 z"
     class="ColorScheme-Text"
     id="path4"
     inkscape:connector-curvature="0" />
</svg>
