<?xml version="1.0" encoding="UTF-8"?>
<!-- Created with Inkscape (http://www.inkscape.org/) -->
<svg width="18.929mm" height="15.048mm" version="1.1" viewBox="0 0 18.929 15.048" xmlns="http://www.w3.org/2000/svg" xmlns:cc="http://creativecommons.org/ns#" xmlns:dc="http://purl.org/dc/elements/1.1/" xmlns:rdf="http://www.w3.org/1999/02/22-rdf-syntax-ns#">
 <metadata>
  <rdf:RDF>
   <cc:Work rdf:about="">
    <dc:format>image/svg+xml</dc:format>
    <dc:type rdf:resource="http://purl.org/dc/dcmitype/StillImage"/>
    <dc:title/>
   </cc:Work>
  </rdf:RDF>
 </metadata>
 <g transform="translate(-23.663 -25.908)">
  <g aria-label="D">
   <path d="m23.663 40.956v-15.048h4.2478q1.9637 0 3.4727 0.86816t2.3254 2.4701q0.82682 1.602 0.83716 3.6794v0.96118q0 2.1291-0.82682 3.731-0.81649 1.602-2.3461 2.4598-1.5193 0.85783-3.545 0.8785zm1.9844-13.415v11.793h2.0877q2.2944 0 3.5657-1.4263 1.2816-1.4263 1.2816-4.0618v-0.8785q0-2.5632-1.2092-3.9791-1.1989-1.4263-3.4106-1.4469z" stroke-width=".26458"/>
  </g>
  <g aria-label="riv">
   <path transform="matrix(.26458 0 0 .26458 23.663 25.908)" d="m54.475 2c-0.5091 0-0.89618 0.14524-1.1602 0.4375-0.25455 0.29226-0.38086 0.65192-0.38086 1.0762 0 0.42425 0.12631 0.77771 0.38086 1.0605 0.26398 0.28283 0.65105 0.42383 1.1602 0.42383 0.5091 0 0.89618-0.141 1.1602-0.42383 0.26398-0.28283 0.39453-0.6363 0.39453-1.0605 0-0.42425-0.13055-0.78391-0.39453-1.0762-0.26398-0.29226-0.65105-0.4375-1.1602-0.4375zm-5.1055 5.2891c-1.5744 0-2.7905 0.68375-3.6484 2.0508l-0.042969-1.7676h-2.5449v15.301h2.6172v-10.861c0.61281-1.4613 1.7763-2.1914 3.4922-2.1914 0.46196 0 0.89114 0.033619 1.2871 0.099609v-2.4336c-0.26398-0.13198-0.65105-0.19727-1.1602-0.19727zm3.7754 0.2832v15.301h2.6172v-15.301h-2.6172zm5.2754 0 5.543 15.301h1.9941l5.4883-15.301h-2.6738l-3.7891 11.752-3.8887-11.752h-2.6738z" stroke-width=".72406"/>
  </g>
  <g transform="scale(1.0462 .95582)" aria-label="e">
   <path d="m37.407 42.849q-1.7218 0-2.8019-1.127-1.0801-1.1348-1.0801-3.0289v-0.2661q0-1.2601 0.47742-2.2462 0.48524-0.99396 1.3462-1.5496 0.86874-0.56351 1.8784-0.56351 1.6514 0 2.5671 1.0879t0.9157 3.1149v0.60264h-5.7368q0.03131 1.2522 0.72786 2.0271 0.70438 0.767 1.7844 0.767 0.767 0 1.2992-0.31306t0.93135-0.82961l0.88439 0.68873q-1.0644 1.6357-3.1932 1.6357zm-0.18001-7.5917q-0.87657 0-1.4714 0.64177-0.59481 0.63394-0.73569 1.7844h4.242v-0.10957q-0.06261-1.1035-0.59481-1.7062-0.5322-0.61047-1.4401-0.61047z" stroke-width=".40072"/>
  </g>
  <flowRoot fill="black" font-family="sans-serif" font-size="40px" letter-spacing="0px" word-spacing="0px" style="line-height:1.25" xml:space="preserve"><flowRegion><rect x="-239.75" y="-50.296" width="415.43" height="184.51"/></flowRegion><flowPara/></flowRoot>
  <flowRoot fill="black" font-family="sans-serif" font-size="40px" letter-spacing="0px" word-spacing="0px" style="line-height:1.25" xml:space="preserve"><flowRegion><rect x="-1.1049" y="-.57742" width="60.767" height="81.759"/></flowRegion><flowPara/></flowRoot>
 </g>
</svg>
