<?xml version="1.0" encoding="UTF-8" standalone="no"?>
<svg
   xmlns:dc="http://purl.org/dc/elements/1.1/"
   xmlns:cc="http://creativecommons.org/ns#"
   xmlns:rdf="http://www.w3.org/1999/02/22-rdf-syntax-ns#"
   xmlns:svg="http://www.w3.org/2000/svg"
   xmlns="http://www.w3.org/2000/svg"
   id="svg8"
   version="1.1"
   viewBox="0 0 18.929041 15.048178"
   height="15.048178mm"
   width="18.929041mm">
  <defs
     id="defs2" />
  <metadata
     id="metadata5">
    <rdf:RDF>
      <cc:Work
         rdf:about="">
        <dc:format>image/svg+xml</dc:format>
        <dc:type
           rdf:resource="http://purl.org/dc/dcmitype/StillImage" />
        <dc:title></dc:title>
      </cc:Work>
    </rdf:RDF>
  </metadata>
  <g
     transform="translate(-23.662765,-25.907615)"
     id="layer1">
    <g
       id="text3701"
       style="font-style:normal;font-variant:normal;font-weight:normal;font-stretch:normal;font-size:10.58333302px;line-height:1.25;font-family:Roboto;-inkscape-font-specification:Roboto;letter-spacing:0px;word-spacing:0px;fill:#000000;fill-opacity:1;stroke:none;stroke-width:0.26458332"
       aria-label="D">
      <path
         id="path60"
         style="font-style:normal;font-variant:normal;font-weight:normal;font-stretch:normal;font-size:21.16666603px;font-family:Roboto;-inkscape-font-specification:Roboto;stroke-width:0.26458332"
         d="M 23.662765,40.955791 V 25.907615 h 4.247802 q 1.963705,0 3.472657,0.868164 1.508951,0.868164 2.325439,2.470133 0.826823,1.60197 0.837158,3.679362 v 0.961182 q 0,2.129069 -0.826823,3.731038 -0.816487,1.601969 -2.34611,2.459798 -1.519287,0.857829 -3.545003,0.878499 z M 25.64714,27.54059 v 11.792562 h 2.087728 q 2.294433,0 3.565673,-1.42627 1.281576,-1.426269 1.281576,-4.061767 v -0.8785 q 0,-2.563151 -1.209229,-3.979085 -1.198893,-1.426269 -3.410644,-1.44694 z" />
    </g>
    <g
       id="text3705"
       style="font-style:normal;font-weight:normal;font-size:7.66292429px;line-height:1.25;font-family:sans-serif;letter-spacing:0px;word-spacing:0px;fill:#000000;fill-opacity:1;stroke:none;stroke-width:0.19157311"
       aria-label="riv">
      <path
         id="path53"
         style="font-style:normal;font-variant:normal;font-weight:normal;font-stretch:normal;font-family:Roboto;-inkscape-font-specification:Roboto;stroke-width:0.19157311"
         d="m 37.031877,28.532112 q -0.15715,-0.02619 -0.340491,-0.02619 -0.680983,0 -0.924191,0.579958 v 2.873597 h -0.692207 v -4.048479 h 0.673499 l 0.01123,0.467708 q 0.340491,-0.542541 0.965349,-0.542541 0.20205,0 0.306816,0.05238 z" />
      <path
         id="path55"
         style="font-style:normal;font-variant:normal;font-weight:normal;font-stretch:normal;font-family:Roboto;-inkscape-font-specification:Roboto;stroke-width:0.19157311"
         d="m 38.416292,31.959475 h -0.692207 v -4.048479 h 0.692207 z M 37.66796,26.837139 q 0,-0.168375 0.101025,-0.284366 0.104766,-0.115992 0.306816,-0.115992 0.20205,0 0.306816,0.115992 0.104767,0.115991 0.104767,0.284366 0,0.168375 -0.104767,0.280625 -0.104766,0.112249 -0.306816,0.112249 -0.20205,0 -0.306816,-0.112249 -0.101025,-0.11225 -0.101025,-0.280625 z" />
      <path
         id="path57"
         style="font-style:normal;font-variant:normal;font-weight:normal;font-stretch:normal;font-family:Roboto;-inkscape-font-specification:Roboto;stroke-width:0.19157311"
         d="m 40.855856,31.020317 1.002766,-3.109321 h 0.707174 l -1.451765,4.048479 h -0.527574 l -1.466732,-4.048479 h 0.707174 z" />
    </g>
    <g
       id="text3709"
       style="font-style:normal;font-variant:normal;font-weight:normal;font-stretch:normal;font-size:16.02864647px;line-height:1.25;font-family:Roboto;-inkscape-font-specification:Roboto;letter-spacing:0px;word-spacing:0px;fill:#000000;fill-opacity:1;stroke:none;stroke-width:0.40071616"
       transform="scale(1.0462234,0.95581881)"
       aria-label="e">
      <path
         id="path50"
         style="font-style:normal;font-variant:normal;font-weight:normal;font-stretch:normal;font-family:Roboto;-inkscape-font-specification:Roboto;stroke-width:0.40071616"
         d="m 37.407271,42.848909 q -1.721827,0 -2.801882,-1.127014 -1.080056,-1.134841 -1.080056,-3.028851 v -0.266101 q 0,-1.260064 0.477416,-2.246202 0.485242,-0.993964 1.346156,-1.549644 0.86874,-0.563507 1.878357,-0.563507 1.651389,0 2.567088,1.087882 0.915699,1.087881 0.915699,3.114942 v 0.602639 h -5.736815 q 0.03131,1.252238 0.727863,2.02706 0.704384,0.766996 1.784439,0.766996 0.766996,0 1.299197,-0.313059 0.532201,-0.31306 0.931352,-0.829608 l 0.884393,0.688731 q -1.064402,1.635736 -3.193207,1.635736 z m -0.180009,-7.591693 q -0.876567,0 -1.47138,0.641772 -0.594813,0.633945 -0.735689,1.784439 h 4.241956 v -0.109571 q -0.06261,-1.103535 -0.594813,-1.706174 -0.532201,-0.610466 -1.440074,-0.610466 z" />
    </g>
    <flowRoot
       style="fill:black;fill-opacity:1;stroke:none;font-family:sans-serif;font-style:normal;font-weight:normal;font-size:40px;line-height:1.25;letter-spacing:0px;word-spacing:0px"
       id="flowRoot34"
       xml:space="preserve"><flowRegion
         id="flowRegion36"><rect
           y="-50.295868"
           x="-239.75339"
           height="184.51068"
           width="415.42523"
           id="rect38" /></flowRegion><flowPara
         id="flowPara40" /></flowRoot>    <flowRoot
       style="fill:black;fill-opacity:1;stroke:none;font-family:sans-serif;font-style:normal;font-weight:normal;font-size:40px;line-height:1.25;letter-spacing:0px;word-spacing:0px"
       id="flowRoot42"
       xml:space="preserve"><flowRegion
         id="flowRegion44"><rect
           y="-0.57742238"
           x="-1.1048543"
           height="81.759224"
           width="60.766991"
           id="rect46" /></flowRegion><flowPara
         id="flowPara48" /></flowRoot>  </g>
</svg>
