<?xml version="1.0" encoding="UTF-8" standalone="no"?>
<svg
   xmlns:dc="http://purl.org/dc/elements/1.1/"
   xmlns:cc="http://creativecommons.org/ns#"
   xmlns:rdf="http://www.w3.org/1999/02/22-rdf-syntax-ns#"
   xmlns:svg="http://www.w3.org/2000/svg"
   xmlns="http://www.w3.org/2000/svg"
   xmlns:sodipodi="http://sodipodi.sourceforge.net/DTD/sodipodi-0.dtd"
   xmlns:inkscape="http://www.inkscape.org/namespaces/inkscape"
   viewBox="0 0 16 16"
   version="1.1"
   id="svg6"
   sodipodi:docname="send-to-symbolic.svg"
   inkscape:version="0.92.2 5c3e80d, 2017-08-06">
  <metadata
     id="metadata10">
    <rdf:RDF>
      <cc:Work
         rdf:about="">
        <dc:format>image/svg+xml</dc:format>
        <dc:type
           rdf:resource="http://purl.org/dc/dcmitype/StillImage" />
      </cc:Work>
    </rdf:RDF>
  </metadata>
  <sodipodi:namedview
     pagecolor="#ffffff"
     bordercolor="#666666"
     borderopacity="1"
     objecttolerance="10"
     gridtolerance="10"
     guidetolerance="10"
     inkscape:pageopacity="0"
     inkscape:pageshadow="2"
     inkscape:window-width="1366"
     inkscape:window-height="715"
     id="namedview8"
     showgrid="false"
     inkscape:zoom="29.5"
     inkscape:cx="5.4383251"
     inkscape:cy="8.2404236"
     inkscape:window-x="1920"
     inkscape:window-y="26"
     inkscape:window-maximized="1"
     inkscape:current-layer="svg6" />
  <defs
     id="defs3051">
    <style
       type="text/css"
       id="current-color-scheme">
      .ColorScheme-Text {
        color:#4d4d4d;
      }
      </style>
  </defs>
  <path
     style="color:#4d4d4d;fill:currentColor;fill-opacity:1;stroke:none;stroke-width:1.27683616"
     d="m 13.112996,0.40677965 c -1.057766,0 -1.915255,0.85748845 -1.915255,1.91525435 0,1.0577658 0.857489,1.9152542 1.915255,1.9152542 1.057765,0 1.915254,-0.8574884 1.915254,-1.9152542 0,-1.0577659 -0.857489,-1.91525435 -1.915254,-1.91525435 z M 9.282486,4.2372882 c -0.3525887,0 -0.6384181,0.2858295 -0.6384181,0.6384181 0,0.3525886 0.2858294,0.6384181 0.6384181,0.6384181 0.3525886,0 0.6384181,-0.2858295 0.6384181,-0.6384181 0,-0.3525886 -0.2858295,-0.6384181 -0.6384181,-0.6384181 z M 6.7288136,5.5141244 c -0.3525886,0 -0.638418,0.2858294 -0.638418,0.638418 0,0.3525886 0.2858294,0.6384181 0.638418,0.6384181 0.3525886,0 0.6384181,-0.2858295 0.6384181,-0.6384181 0,-0.3525886 -0.2858295,-0.638418 -0.6384181,-0.638418 z M 2.8983052,6.7909605 c -1.0577657,0 -1.91525431,0.8574884 -1.91525431,1.9152543 0,1.0577658 0.85748861,1.9152552 1.91525431,1.9152552 1.0577656,0 1.9152542,-0.8574894 1.9152542,-1.9152552 0,-1.0577659 -0.8574886,-1.9152543 -1.9152542,-1.9152543 z M 6.7288136,10.62147 c -0.3525886,0 -0.638418,0.28583 -0.638418,0.638418 0,0.352589 0.2858294,0.638419 0.638418,0.638419 0.3525886,0 0.6384181,-0.28583 0.6384181,-0.638419 0,-0.352588 -0.2858295,-0.638418 -0.6384181,-0.638418 z m 2.5536724,1.276837 c -0.3525887,0 -0.6384181,0.28583 -0.6384181,0.638417 0,0.352589 0.2858294,0.638419 0.6384181,0.638419 0.3525886,0 0.6384181,-0.28583 0.6384181,-0.638419 0,-0.352587 -0.2858295,-0.638417 -0.6384181,-0.638417 z m 3.83051,0 c -1.057766,0 -1.915255,0.857488 -1.915255,1.915254 0,1.057765 0.857489,1.915254 1.915255,1.915254 1.057765,0 1.915254,-0.857489 1.915254,-1.915254 0,-1.057766 -0.857489,-1.915254 -1.915254,-1.915254 z"
     class="ColorScheme-Text"
     id="path4"
     inkscape:connector-curvature="0" />
</svg>
