<?xml version="1.0" encoding="UTF-8" standalone="no"?>
<svg
   xmlns:dc="http://purl.org/dc/elements/1.1/"
   xmlns:cc="http://creativecommons.org/ns#"
   xmlns:rdf="http://www.w3.org/1999/02/22-rdf-syntax-ns#"
   xmlns:svg="http://www.w3.org/2000/svg"
   xmlns="http://www.w3.org/2000/svg"
   xmlns:sodipodi="http://sodipodi.sourceforge.net/DTD/sodipodi-0.dtd"
   xmlns:inkscape="http://www.inkscape.org/namespaces/inkscape"
   viewBox="0 0 16 16"
   version="1.1"
   id="svg6"
   sodipodi:docname="folder-publicshare-symbolic.svg"
   inkscape:version="0.92.2 5c3e80d, 2017-08-06">
  <metadata
     id="metadata10">
    <rdf:RDF>
      <cc:Work
         rdf:about="">
        <dc:format>image/svg+xml</dc:format>
        <dc:type
           rdf:resource="http://purl.org/dc/dcmitype/StillImage" />
      </cc:Work>
    </rdf:RDF>
  </metadata>
  <sodipodi:namedview
     pagecolor="#ffffff"
     bordercolor="#666666"
     borderopacity="1"
     objecttolerance="10"
     gridtolerance="10"
     guidetolerance="10"
     inkscape:pageopacity="0"
     inkscape:pageshadow="2"
     inkscape:window-width="1366"
     inkscape:window-height="715"
     id="namedview8"
     showgrid="false"
     inkscape:zoom="29.5"
     inkscape:cx="2.9530437"
     inkscape:cy="8.2550008"
     inkscape:window-x="1920"
     inkscape:window-y="26"
     inkscape:window-maximized="1"
     inkscape:current-layer="svg6" />
  <defs
     id="defs3051">
    <style
       type="text/css"
       id="current-color-scheme">
      .ColorScheme-Text {
        color:#4d4d4d;
      }
      </style>
  </defs>
  <path
     style="color:#4d4d4d;opacity:1;fill:currentColor;fill-opacity:1;stroke:none;stroke-width:1.17209911"
     d="m 5.6812256,0.88135594 c -1.6233573,0 -2.9302477,1.30689046 -2.9302477,2.93024766 0,1.6233572 1.3068904,2.9302477 2.9302477,2.9302477 1.6233572,0 2.9302477,-1.3068905 2.9302477,-2.9302477 0,-1.6233572 -1.3068905,-2.93024766 -2.9302477,-2.93024766 z m 0,1.17209906 c 0.9740143,0 1.7581486,0.7841343 1.7581486,1.7581486 0,0.9740143 -0.7841343,1.7581486 -1.7581486,1.7581486 -0.9740144,0 -1.7581487,-0.7841343 -1.7581487,-1.7581486 0,-0.9740143 0.7841343,-1.7581486 1.7581487,-1.7581486 z M 12.12777,3.225554 c -1.298686,0 -2.3441977,1.0455123 -2.3441977,2.3441982 0,1.2986859 1.0455117,2.3441982 2.3441977,2.3441982 1.298686,0 2.344198,-1.0455123 2.344198,-2.3441982 0,-1.2986859 -1.045512,-2.3441982 -2.344198,-2.3441982 z m 0,1.1720991 c 0.649343,0 1.172099,0.5227561 1.172099,1.1720991 0,0.649343 -0.522756,1.1720991 -1.172099,1.1720991 -0.649343,0 -1.172099,-0.5227561 -1.172099,-1.1720991 0,-0.649343 0.522756,-1.1720991 1.172099,-1.1720991 z M 5.6812256,7.9139504 c -2.9220285,0 -5.27444593,2.3524166 -5.27444593,5.2744456 v 0.58605 1.172099 h 0.32278507 0.84931406 0.4051983 7.394297 1.2545119 0.322785 v -1.172099 -0.58605 c 0,-2.922029 -2.352417,-5.2744456 -5.2744454,-5.2744456 z m 0,1.172099 c 2.2726855,0 4.1023467,1.8296606 4.1023467,4.1023466 v 0.58605 H 1.5788788 v -0.58605 c 0,-2.272686 1.8296612,-4.1023466 4.1023468,-4.1023466 z m 6.4465444,0 c -0.650194,0 -1.250495,0.1869645 -1.771884,0.4921901 0.284982,0.2776432 0.545505,0.5802715 0.76919,0.9111245 0.304876,-0.144576 0.641664,-0.231216 1.002694,-0.231216 1.298686,0 2.344198,1.045513 2.344198,2.344199 h -2.46095 c 0.07632,0.378686 0.116753,0.770266 0.116753,1.172099 h 2.021413 1.281983 0.212901 v -1.172099 c 0,-1.948029 -1.568268,-3.5162976 -3.516298,-3.5162976 z"
     class="ColorScheme-Text"
     id="path4"
     inkscape:connector-curvature="0" />
</svg>
