<?xml version="1.0" encoding="UTF-8" standalone="no"?>
<svg
   xmlns:dc="http://purl.org/dc/elements/1.1/"
   xmlns:cc="http://creativecommons.org/ns#"
   xmlns:rdf="http://www.w3.org/1999/02/22-rdf-syntax-ns#"
   xmlns:svg="http://www.w3.org/2000/svg"
   xmlns="http://www.w3.org/2000/svg"
   xmlns:sodipodi="http://sodipodi.sourceforge.net/DTD/sodipodi-0.dtd"
   xmlns:inkscape="http://www.inkscape.org/namespaces/inkscape"
   viewBox="0 0 16 16"
   version="1.1"
   id="svg6"
   sodipodi:docname="help-about-symbolic.svg"
   inkscape:version="0.92.2 5c3e80d, 2017-08-06">
  <metadata
     id="metadata10">
    <rdf:RDF>
      <cc:Work
         rdf:about="">
        <dc:format>image/svg+xml</dc:format>
        <dc:type
           rdf:resource="http://purl.org/dc/dcmitype/StillImage" />
      </cc:Work>
    </rdf:RDF>
  </metadata>
  <sodipodi:namedview
     pagecolor="#ffffff"
     bordercolor="#666666"
     borderopacity="1"
     objecttolerance="10"
     gridtolerance="10"
     guidetolerance="10"
     inkscape:pageopacity="0"
     inkscape:pageshadow="2"
     inkscape:window-width="1366"
     inkscape:window-height="715"
     id="namedview8"
     showgrid="false"
     inkscape:zoom="14.75"
     inkscape:cx="8"
     inkscape:cy="8"
     inkscape:window-x="1920"
     inkscape:window-y="26"
     inkscape:window-maximized="1"
     inkscape:current-layer="svg6" />
  <defs
     id="defs3051">
    <style
       type="text/css"
       id="current-color-scheme">
      .ColorScheme-Text {
        color:#4d4d4d;
      }
      </style>
  </defs>
  <path
     style="color:#4d4d4d;fill:currentColor;fill-opacity:1;stroke:none;stroke-width:1.37596297"
     d="m 8.0084744,0.55932203 c -4.1801756,0 -7.56779646,3.38762087 -7.56779646,7.56779657 0,4.1801754 3.38762086,7.5677964 7.56779646,7.5677964 4.1801756,0 7.5677966,-3.387621 7.5677966,-7.5677964 0,-4.1801757 -3.387621,-7.56779657 -7.5677966,-7.56779657 m 0,1.37596307 c 3.4192676,0 6.1918346,2.7656855 6.1918346,6.1918335 0,1.3775987 -0.448934,2.6502234 -1.209122,3.6788444 -1.126637,1.524467 -2.936936,2.51299 -4.9827126,2.51299 -3.419268,0 -6.1918335,-2.765687 -6.1918335,-6.1918344 0,-3.4192681 2.7656856,-6.1918335 6.1918335,-6.1918335 M 7.320493,3.311248 V 4.6872111 H 8.6964564 V 3.311248 Z m 0,2.751926 v 6.879815 H 8.6964564 V 6.063174 Z"
     class="ColorScheme-Text"
     id="path4"
     inkscape:connector-curvature="0"
     sodipodi:nodetypes="csssccssssccccccccccc" />
</svg>
